#tb 0: 1/50
#media_type 0: video
#codec_id 0: rawvideo
#dimensions 0: 720x576
#sar 0: 16/15
0,         18,         18,        1,   622080, 0xe1b21462
0,         19,         19,        1,   622080, 0x1362538d
0,         20,         20,        1,   622080, 0x0f55f79b
0,         21,         21,        1,   622080, 0xfdb265f6
0,         22,         22,        1,   622080, 0x2f8eb534
0,         23,         23,        1,   622080, 0x0de472b1
0,         24,         24,        1,   622080, 0x3e699a78
0,         25,         25,        1,   622080, 0x66396524
0,         26,         26,        1,   622080, 0x17244d40
0,         27,         27,        1,   622080, 0x04a5d554
0,         28,         28,        1,   622080, 0x0e278cd9
0,         29,         29,        1,   622080, 0x7b53d8de
0,         30,         30,        1,   622080, 0xe51a558e
0,         31,         31,        1,   622080, 0xd58177e4
0,         32,         32,        1,   622080, 0x270b4e1f
0,         33,         33,        1,   622080, 0x3fbf1bdf
0,         34,         34,        1,   622080, 0xbfebee9d
0,         35,         35,        1,   622080, 0x2c6fcccf
0,         36,         36,        1,   622080, 0x4a57fcc2
0,         37,         37,        1,   622080, 0x33b53f5d
0,         38,         38,        1,   622080, 0x93ba405d
0,         39,         39,        1,   622080, 0xf4dbb54b
0,         40,         40,        1,   622080, 0xf205ce68
0,         41,         41,        1,   622080, 0x383fe5bc
0,         42,         42,        1,   622080, 0x4dd06905
0,         43,         43,        1,   622080, 0xc925de57
0,         44,         44,        1,   622080, 0x7c8786e8
0,         45,         45,        1,   622080, 0x550b9f60
0,         46,         46,        1,   622080, 0x4162d1e9
0,         47,         47,        1,   622080, 0xf609a847
